<svg class="main-nav__logo" version="1.1" xmlns="http://www.w3.org/2000/svg" xmlns:xlink="http://www.w3.org/1999/xlink" x="0px" y="0px" viewBox="0 0 309.9 264.4" xml:space="preserve">
	<path class="main-nav__logo-body" data-duration="20" d="M160.2,2.5c4.2,2.6,8,3.8,11.7,3.8c2.2,0,4.2-0.4,6.2-0.8c1.9-0.4,3.6-0.7,5.6-0.7c1.8,0,3.6,0.3,5.4,1
	c8.4,3.2,13.3,14.2,15.1,18.9c-0.8-0.2-1.6-0.3-2.4-0.3c-0.4,0-0.8,0-1.2,0.1c-0.4-1.6-1.4-4.6-3.9-6c-0.7-0.3-1.2-0.5-1.8-0.5
	c-0.7,0-1.2,0.2-1.7,0.7c-0.9,0.9-0.9,2.4-0.9,2.6l0,0.4l0.3,0.3c0,0,1.1,1.2,7.2,8.5c3.9,4.8,4,11,3.5,14.7c-1-1.1-2.2-1.5-3-1.6
	c0,0-3.3-0.3-7.4-6.8c-1.5-2.5-3.4-3.8-5.7-3.8c-3.7,0-6.8,3.4-6.9,3.5l-0.1,0.1l-0.1,0.1c-3.1,6.3-5.3,13.8-5.7,19.6
	c-0.4-0.3-0.9-0.4-1.4-0.4c-0.5,0-1.1,0.1-1.8,0.8c-2.1,2.2-3,9.6-2.7,22.6c0,0.5,0,1,0,1.4l0,0.1l0,0.1c1,4.6,4.9,15.5,17.8,15.6
	c0,0,0.1,0,0.1,0c0.7,0.1,1.3,0.1,1.9,0.1c10.2,0,18.5-8.3,18.5-18.5c0-4.1-1.4-8.1-4.1-11.6c-1.9-2.6-4.1-4.2-5.7-5.2
	c6.2-2.9,10.2-7.4,11.8-9.4c0,0,0-0.1,0.1-0.1c2.6,1.1,5.1,2,7.4,2.8c7.9,2.7,14.5,4,20.3,4c0.2,0,0.4,0,0.6,0
	c5.8-0.1,11.1-1.5,16.8-4.5c0.2,6.1-1.8,11.3-5.8,15.6l-0.1,0.1c0,0-0.1,0.1-0.1,0.1c-1.7,1.6-3.8,3.1-6.1,4.4l-0.9,0.5l0.1,0.1
	c-2,1-3.5,1.5-3.5,1.5l-3.7,1.1l3.8,0.8c1.4,0.3,2.9,0.5,4.5,0.5l0.1,0c2.7,0,5-0.5,6.4-0.8c-0.2,3.5-1.1,6.7-2.7,9.4
	c0,0,0,0.1-0.1,0.1l-0.1,0.1l-0.1,0.1c-0.2,0.4-0.4,0.7-0.6,0.9c0,0-0.1,0.1-0.1,0.1l-0.1,0.1c-2.5,2.6-5.9,5-10.3,7.2
	c-0.1,0-0.3,0.1-0.4,0.1c-0.8,0.2-1.3,0.3-1.3,0.3l-0.9,0.2l0.1,0.9c0.4,2.6,4.1,3.3,7.3,3.4c-1.3,3.8-3.5,6.9-6.7,9l0,0l0,0
	c-2.4,1.4-5.2,2.3-8.4,2.8l-2.3,0.3l0.4,0.3l0.6,1.2c1.2,2.4,4.7,3.1,7.6,3.3c-2.2,3.4-7.6,10.3-14.2,11.3l-1.7,0.2l1,1.3
	c0,0,0,0,0,0l-1.5,0.3l0.9,1.3c1.1,1.6,5,3.2,9,4.7c-2,1.4-5.4,3.3-10.1,5.6c-9.5,5-18.8,7.7-25.5,9.7c-4.1,1.2-7.1,2.1-8.6,3.1
	l-0.2,0.1l-0.1,0.2c-0.4,0.8-0.6,1.5-0.4,2.2c0.2,0.7,0.7,1.2,1.4,1.6l0,0l0,0c0.9,0.5,1.9,1,3,1.5c1.2,0.5,2.4,1,3.4,1.3
	c-1.6,0.5-3.4,0.8-5.3,0.8c-0.2,0-0.4,0-0.6,0c-0.7,0-1.3,0-2-0.1c-2.4-0.4-5-1.1-7.8-2.2l-1.4-0.5v0.6l-1.2-0.5l0.1,1.6
	c0.8,14.5,17.9,21.4,24.3,23.5c-1.3,0.5-3.1,0.9-5.3,0.9c-0.5,0-1.1,0-1.6-0.1l-0.1,0c-0.2,0-0.4,0-0.6-0.1l-0.1,0l-0.1,0l-0.1,0
	c-0.2,0-0.4-0.1-0.6-0.1l-0.1,0l-0.2,0l-0.1,0c-0.1,0-0.2,0-0.3-0.1l-0.2,0l-0.2,0c-0.1,0-0.2,0-0.3-0.1l-0.1,0l-0.1,0l-0.1,0
	c-0.2-0.1-0.4-0.1-0.7-0.2v0l0,0l0,0c-4.6-1.5-9.2-4.8-13.7-9.8l-2.8-3.1l0.4,1.5l-1.7-1.9l0.4,3.2c1.5,12,13.2,20.2,16.8,22.4
	c0,0.3-0.1,0.7-0.1,1.1l-3.3,11.6c-2.8-2.4-7.8-7.7-11.4-17.2l-2.6-6.7l0.5,5.9l-2.4-4.3l1.5,6.6c2.5,11.5,6.5,19.4,9.3,23.9
	c1.1,1.7,1.9,2.8,2.4,3.4l-4.4,12.1c-2.4-3.4-6.9-11-8.7-21.9l-1.5-8.7l-0.3,5.8l-0.8-3l-0.3,6.5c0,0.4,0,0.8,0,1.2
	c0,0.8,0,1.7,0,2.6c0.5,11.5,5.3,23.1,7.1,27.1l-11.7,18.2l-0.1-0.2l-0.2,0.3l-11.8-18.3c1.8-4,6.6-15.6,7.1-27.1
	c0-0.9,0.1-1.7,0-2.6c0-0.4,0-0.8,0-1.2l-0.3-6.5l-0.7,2.7l-0.2-6.6l-1.7,9.8c-1.8,10.9-6.3,18.4-8.7,21.9l-4.4-12.1
	c0.5-0.6,1.3-1.7,2.4-3.4c2.8-4.5,6.7-12.3,9.3-23.9l1.5-6.9l-2.5,4.6l0.5-5.9l-2.6,6.7c-3.7,9.5-8.6,14.8-11.4,17.2l-3.3-11.6
	c0-0.4-0.1-0.7-0.1-1.1c3.5-2.2,15.3-10.5,16.8-22.4l0.4-3.2l-1.7,1.9l0.4-1.5L141,176c-4.5,5-9.1,8.3-13.7,9.8
	c-0.2,0.1-0.5,0.1-0.7,0.2l-0.1,0l-0.1,0l-0.1,0c-0.1,0-0.2,0-0.3,0.1l-0.2,0l-0.2,0c-0.1,0-0.2,0-0.3,0.1l-0.1,0l-0.1,0l-0.1,0
	c-0.2,0-0.4,0.1-0.6,0.1l-0.1,0l-0.1,0l-0.1,0c-0.2,0-0.4,0.1-0.6,0.1l-0.1,0l0,0c-0.5,0.1-1.1,0.1-1.6,0.1c-2.2,0-4-0.5-5.3-0.9
	c6.4-2.1,23.6-9,24.3-23.5l0.1-1.6l-1.2,0.5v-0.6l-1.4,0.5c-2.8,1.1-5.4,1.8-7.8,2.2c-0.7,0.1-1.3,0.1-2,0.1c-0.2,0-0.4,0-0.6,0
	c-1.9,0-3.7-0.3-5.3-0.8c1-0.3,2.2-0.7,3.4-1.3c1.1-0.5,2-1,3-1.5c0,0,0.1,0,0.1,0c0.8-0.4,1.2-1,1.4-1.7c0.2-0.7,0-1.4-0.4-2.2
	l-0.1-0.2l-0.2-0.1c-1.4-1-4.4-1.8-8.6-3.1c-6.8-2-16-4.7-25.6-9.7c-4.7-2.3-8.1-4.2-10.1-5.6c4-1.5,8-3.1,9-4.7l0.8-1.3l-1.5-0.3
	c0,0,0,0,0,0l1-1.3l-1.7-0.2c-6.6-0.9-12-7.9-14.2-11.3c2.8-0.2,6.4-0.9,7.6-3.3l0.6-1.2l0.4-0.3l-2.3-0.3c-3.2-0.5-6-1.4-8.4-2.8
	c-3.2-2.2-5.4-5.2-6.7-9c3.3-0.1,7-0.9,7.3-3.4l0.1-0.9l-0.9-0.2c0,0-0.5-0.1-1.3-0.3c-0.1,0-0.3-0.1-0.4-0.1
	c-4.4-2.2-7.8-4.6-10.3-7.2l-0.1-0.1c0,0-0.1-0.1-0.1-0.1c-0.2-0.3-0.4-0.6-0.6-0.9l-0.1-0.1l0-0.1c0,0,0-0.1-0.1-0.1
	c-1.6-2.7-2.5-5.8-2.7-9.4c1.4,0.3,3.7,0.8,6.4,0.8l0.1,0c1.6,0,3.1-0.2,4.5-0.5l3.8-0.8l-3.7-1.1c0,0-1.5-0.4-3.5-1.5l0.1-0.1
	l-0.9-0.5c-2.3-1.3-4.3-2.8-6-4.4c0,0-0.1-0.1-0.1-0.1l-0.1-0.1c-4-4.2-6-9.5-5.8-15.6c5.7,3,11,4.4,16.8,4.5c0.2,0,0.4,0,0.6,0
	c5.8,0,12.4-1.3,20.3-4c2.3-0.8,4.8-1.7,7.4-2.8c0,0,0,0.1,0.1,0.1c1.5,2,5.5,6.5,11.8,9.4c-1.6,1-3.8,2.6-5.7,5.2
	c-2.7,3.5-4.1,7.5-4.1,11.6c0,10.2,8.3,18.5,18.5,18.5c0.6,0,1.2,0,1.9-0.1c0,0,0.1,0,0.1,0c0,0,0,0,0,0
	c12.9-0.1,16.8-10.9,17.8-15.6l0-0.1l0-0.1c0-0.5,0-0.9,0-1.4c0.3-13-0.5-20.4-2.7-22.6c-0.6-0.7-1.3-0.8-1.8-0.8
	c-0.5,0-1,0.2-1.4,0.4c-0.4-5.9-2.6-13.3-5.7-19.6l-0.1-0.1l-0.1-0.1c-0.1-0.1-3.3-3.5-6.9-3.5c-2.3,0-4.2,1.3-5.7,3.8
	c-4,6.6-7.3,6.8-7.4,6.8c-0.8,0-2,0.4-3,1.6c-0.4-3.7-0.4-9.9,3.5-14.7c6.1-7.3,7.2-8.5,7.2-8.5l0.3-0.3l0-0.4c0-0.2,0-1.7-0.9-2.6
	c-0.4-0.4-1-0.7-1.7-0.7c-0.5,0-1.1,0.2-1.8,0.5c-2.4,1.3-3.5,4.4-3.9,6c-0.3,0-0.7-0.1-1.2-0.1c-0.8,0-1.6,0.1-2.4,0.3
	c1.8-4.7,6.7-15.8,15.1-18.9c1.8-0.7,3.6-1,5.4-1c1.9,0,3.7,0.4,5.6,0.7c1.9,0.4,3.9,0.8,6.2,0.8c3.8,0,7.5-1.2,11.7-3.8
	c-1.3,2.3-4.4,5.9-11.5,8.9l-1.3,0.5l1,1.1c4.3,4.7,9.2,10.4,12.6,16.6c1,1.8,2,3.7,2.9,5.5l0.7,1.4l0.9,1.7l0.9-1.7l0.7-1.4
	c0.9-1.8,1.9-3.7,2.9-5.5c3.5-6.2,8.3-11.9,12.6-16.6l1-1.1l-1.3-0.5C164.5,8.4,161.5,4.8,160.2,2.5" />
	<path class="main-nav__logo-wings main-nav__logo-wings--1" data-async="y" data-duration="30" d="M11,65.1c7.7,3.1,29.2,11.2,46.5,11.3c-0.2,1.7-0.2,5,1.3,9c-5.6-0.2-25.6-1-36.1-4.7
	c-2.8-1-7.5-8.7-11.5-15.4C11,65.2,11,65.1,11,65.1" />
	<path class="main-nav__logo-wings main-nav__logo-wings--2" data-async="y" data-duration="30" d="M26.3,86c5.3,1.4,16.3,3.7,31.4,3.7c1,0,2.1,0,3.1,0c0.7,1.2,2.7,4.2,6.8,7c-3.3,0.2-8.8,0.4-14.1,0.5
	c-1.6,0-3.2,0-4.7,0c-7.8,0-11.8-0.3-12.6-0.6C34.6,95.1,29.4,89.5,26.3,86" />
	<path class="main-nav__logo-wings main-nav__logo-wings--3" data-async="y" data-duration="30" d="M1.5,41.9c2,2.3,5.2,4.9,9.8,7.6c10.1,5.8,24,10,41.5,12.4c0.5,1.8,2,6.8,6,10.7c-0.2,0-0.4,0-0.6,0
	c-5.9,0-22.5-1.2-49.2-12.7C5.9,58.6,2.7,49.3,1.5,41.9" />
	<path class="main-nav__logo-wings main-nav__logo-wings--4" data-async="y" data-duration="30" d="M70.1,110.4c0.9,0.8,3,2.6,5.4,4.1c-2.5,0.2-5.5,0.4-7,0.7c-2.2,0.4-8.3,1.7-10.1,2l-6-5.1c0.5,0,1.1,0,1.7,0
	C58.9,112.2,65.4,111.9,70.1,110.4" />
	<path class="main-nav__logo-wings main-nav__logo-wings--5" data-async="y" data-duration="30" d="M69.1,107.6c-2.2-3.9-2.6-7.4-2.6-7.4c-3.8,0.2-6.2,0.6-12.5,0.6c-8.4,0-16.1-0.6-16.1-0.6l10,9
	c0,0,8.4,0.5,12.7,0.2S69.1,107.6,69.1,107.6" />
	<path class="main-nav__logo-wings main-nav__logo-wings--6" data-async="y" data-duration="30" d="M81.9,129.3c0.8,0.8,2.3,2.1,3.8,3.2c-1.7,0.5-3.4,1-4.5,1.5c-1.2-1-2.4-1.9-3.5-2.6
	C79.1,130.9,80.7,130.3,81.9,129.3" />
	<path class="main-nav__logo-wings main-nav__logo-wings--7" data-async="y" data-duration="30" d="M73.6,118.5c0.1,0,0.2,0,0.2,0c0.6,1.3,2.1,4.5,5.1,7.9c-1.4,0.7-3.7,1.4-6,1.9c-1.5-1.1-7.5-5.5-10.5-7.8
	C65.2,119.7,70.3,118.5,73.6,118.5" />
	<path class="main-nav__logo-wings main-nav__logo-wings--8" data-async="y" data-duration="30" d="M299,65.1c0,0.1-0.1,0.1-0.1,0.2c-4.1,6.8-8.7,14.4-11.5,15.4c-10.5,3.7-30.4,4.5-36.1,4.7
	c1.5-3.9,1.4-7.3,1.3-9C269.7,76.3,291.3,68.2,299,65.1" />
	<path class="main-nav__logo-wings main-nav__logo-wings--9" data-async="y" data-duration="30" d="M283.6,86c-3.1,3.4-8.3,9.1-9.9,10.7c-0.8,0.2-4.7,0.6-12.6,0.6c-1.6,0-3.2,0-4.7,0
	c-5.3-0.1-10.7-0.4-14.1-0.5c4-2.7,6.1-5.7,6.8-7c1,0,2.1,0,3.1,0C267.3,89.8,278.3,87.4,283.6,86" />
	<path class="main-nav__logo-wings main-nav__logo-wings--10" data-async="y" data-duration="30" d="M308.4,41.9c-1.2,7.4-4.4,16.7-7.5,18c-26.8,11.5-43.3,12.7-49.2,12.7c-0.2,0-0.4,0-0.6,0
	c4-3.9,5.5-8.9,6-10.7c17.5-2.4,31.4-6.6,41.5-12.4C303.2,46.8,306.4,44.2,308.4,41.9" />
	<path class="main-nav__logo-wings main-nav__logo-wings--11" data-async="y" data-duration="30" d="M239.8,110.4c4.7,1.5,11.2,1.8,15.9,1.8c0.6,0,1.2,0,1.7,0l-6,5.1c-1.8-0.4-7.8-1.6-10.1-2
	c-1.5-0.3-4.5-0.5-7-0.7C236.8,113.1,238.9,111.2,239.8,110.4" />
	<path class="main-nav__logo-wings main-nav__logo-wings--12" data-async="y" data-duration="30" d="M240.8,107.6c2.2-3.9,2.6-7.4,2.6-7.4c3.8,0.2,6.2,0.6,12.5,0.6c8.4,0,16.1-0.6,16.1-0.6l-10,9
	c0,0-8.4,0.5-12.7,0.2C245,108.9,240.8,107.6,240.8,107.6" />
	<path class="main-nav__logo-wings main-nav__logo-wings--13" data-async="y" data-duration="30" d="M228,129.3c1.2,1,2.8,1.7,4.2,2.1c-1.1,0.7-2.3,1.6-3.5,2.6c-1-0.5-2.8-1-4.5-1.5
	C225.8,131.4,227.2,130.1,228,129.3" />
	<path class="main-nav__logo-wings main-nav__logo-wings--14" data-async="y" data-duration="30" d="M236.3,118.5L236.3,118.5c3.3,0,8.4,1.2,11.1,1.9c-3,2.3-9,6.7-10.5,7.8c-2.3-0.4-4.5-1.1-6-1.9
	c3-3.4,4.5-6.6,5.1-7.9C236.2,118.5,236.3,118.5,236.3,118.5" />
</svg>