<?xml version="1.0" standalone="no"?>
<!DOCTYPE svg PUBLIC "-//W3C//DTD SVG 20010904//EN"
 "http://www.w3.org/TR/2001/REC-SVG-20010904/DTD/svg10.dtd">
<svg version="1.0" xmlns="http://www.w3.org/2000/svg"
 width="16.000000pt" height="16.000000pt" viewBox="0 0 16.000000 16.000000"
 preserveAspectRatio="xMidYMid meet">
<metadata>
Created by potrace 1.11, written by Peter Selinger 2001-2013
</metadata>
<g transform="translate(0.000000,16.000000) scale(0.006154,-0.006154)"
fill="#000000" stroke="none">
<path d="M1227 2378 c-37 -20 -71 -23 -137 -14 -58 9 -97 -4 -138 -45 -22 -21
-49 -61 -60 -89 l-21 -51 22 6 c12 4 30 18 40 31 20 25 37 31 37 13 0 -6 -19
-33 -42 -60 -37 -44 -41 -55 -44 -108 l-3 -60 37 25 c20 14 51 41 68 59 34 38
63 38 90 1 16 -23 43 -107 46 -147 2 -19 7 -25 19 -22 22 6 30 -29 30 -130 0
-87 -15 -124 -64 -161 -40 -30 -131 -29 -174 2 -37 26 -63 78 -63 125 0 34 38
104 66 120 19 11 17 25 -4 31 -10 4 -33 20 -50 37 -35 34 -27 34 -151 0 -93
-26 -156 -27 -220 -2 -28 10 -52 17 -54 14 -8 -7 14 -87 30 -113 17 -25 50
-55 87 -78 19 -11 16 -12 -27 -10 l-48 3 7 -30 c14 -64 38 -92 113 -131 l24
-13 -29 -12 c-16 -7 -31 -14 -33 -16 -2 -1 8 -20 22 -42 19 -29 38 -44 67 -52
48 -15 51 -26 8 -37 l-32 -8 37 -41 c21 -22 51 -46 67 -53 39 -16 38 -28 -5
-46 -19 -8 -35 -18 -35 -22 0 -15 161 -89 268 -123 56 -18 102 -39 102 -46 0
-6 -16 -17 -34 -24 -55 -20 -31 -32 50 -26 41 3 74 3 74 -1 0 -3 -9 -25 -20
-48 -22 -45 -67 -81 -145 -115 -47 -21 -48 -22 -25 -31 38 -14 96 -1 145 32
24 17 47 35 50 40 3 6 10 10 15 10 22 0 -19 -70 -72 -123 l-58 -59 18 -61 19
-60 41 52 c22 28 44 60 47 71 4 11 10 20 15 20 18 0 -38 -149 -73 -195 -13
-17 -13 -25 6 -77 12 -32 24 -58 28 -58 10 0 55 90 63 127 4 18 11 35 16 38
15 9 0 -86 -25 -162 l-25 -75 34 -56 c20 -32 44 -70 54 -85 l19 -28 56 88 c32
50 52 92 48 98 -12 15 -39 102 -49 157 -11 54 2 89 13 37 8 -38 50 -125 64
-133 4 -3 18 17 30 45 l21 51 -39 81 c-22 45 -42 98 -46 117 l-6 35 30 -45
c72 -108 79 -110 101 -28 l12 47 -58 58 c-51 51 -96 123 -76 123 4 0 26 -16
50 -35 56 -44 101 -59 153 -50 l41 7 -68 33 c-78 38 -130 86 -144 134 l-9 33
42 -8 c51 -9 94 -7 116 6 14 9 14 9 -1 10 -26 0 -68 22 -68 34 0 6 53 28 118
49 64 20 150 56 191 79 l75 41 -42 21 c-33 17 -40 24 -30 34 7 7 17 12 24 12
13 0 94 78 94 90 0 5 -13 11 -30 15 -41 9 -38 20 9 34 67 19 117 100 68 107
-20 3 -33 12 -26 17 2 2 23 15 46 30 50 32 73 64 80 111 l4 34 -48 -5 -48 -6
49 34 c50 34 81 80 90 133 7 42 -1 48 -37 29 -20 -10 -61 -17 -112 -19 -66 -2
-95 3 -162 26 -46 15 -83 24 -83 19 0 -5 -23 -25 -50 -45 l-50 -36 34 -34 c43
-43 58 -98 40 -149 -25 -73 -74 -104 -157 -101 -92 4 -138 67 -136 186 1 93
10 126 32 122 12 -2 17 4 17 21 0 38 28 122 51 151 29 36 55 33 97 -14 19 -22
48 -47 64 -54 l28 -14 0 38 c0 52 -13 83 -57 136 -26 33 -33 48 -25 56 8 8 16
3 29 -20 12 -21 26 -32 41 -32 22 0 22 1 7 38 -32 76 -102 140 -156 143 -13 1
-49 -1 -80 -5 -46 -6 -64 -4 -98 13 -38 18 -42 18 -39 3 2 -9 24 -32 49 -51
l47 -34 -45 -55 c-25 -30 -52 -70 -61 -88 -8 -19 -19 -34 -24 -34 -4 0 -16 17
-27 38 -11 21 -40 64 -65 95 -39 47 -43 56 -29 61 25 8 67 47 82 74 6 12 10
22 9 21 -2 0 -20 -9 -41 -21z"/>
<path d="M0 2063 c0 -29 42 -142 58 -156 46 -42 272 -111 394 -121 l56 -5 -31
52 c-17 29 -32 53 -33 55 -1 3 -16 6 -108 23 -118 21 -242 76 -303 133 -18 16
-33 25 -33 19z"/>
<path d="M2557 2035 c-67 -58 -170 -99 -322 -130 -44 -9 -80 -17 -81 -18 -1
-1 -9 -18 -19 -37 -10 -19 -24 -42 -32 -51 -13 -16 -10 -17 39 -13 59 4 73 6
171 30 83 20 203 66 228 87 16 15 66 153 58 162 -2 1 -21 -12 -42 -30z"/>
<path d="M84 1855 c3 -9 24 -42 46 -75 49 -72 80 -84 260 -96 47 -3 91 -7 97
-9 9 -3 11 8 6 43 -3 26 -6 48 -7 49 -1 1 -28 4 -61 7 -77 8 -200 40 -278 71
-71 29 -71 29 -63 10z"/>
<path d="M2403 1828 c-62 -21 -153 -43 -203 -50 -88 -12 -90 -13 -90 -39 0
-15 -3 -35 -7 -44 -5 -16 3 -17 93 -11 199 12 224 21 281 107 25 38 44 71 42
72 -2 2 -54 -14 -116 -35z"/>
<path d="M250 1636 l55 -57 144 2 144 1 -44 39 c-40 35 -49 38 -104 39 -33 1
-69 3 -80 4 -45 6 -122 18 -145 23 -21 5 -17 -3 30 -51z"/>
<path d="M2359 1686 c-8 -8 -75 -17 -171 -23 -96 -6 -98 -6 -137 -44 -29 -27
-36 -38 -23 -38 9 0 73 0 142 0 l124 -1 56 55 c44 45 51 55 34 55 -11 0 -23
-2 -25 -4z"/>
<path d="M2258 1564 c-3 -3 -53 -5 -110 -5 l-104 0 -11 -29 c-10 -27 -9 -31
11 -36 13 -3 53 -6 88 -7 63 -1 68 1 107 35 22 21 37 40 32 42 -5 3 -11 3 -13
0z"/>
<path d="M360 1524 c37 -33 45 -36 102 -37 35 0 75 2 90 6 24 6 26 9 15 36
l-11 30 -118 0 -118 1 40 -36z"/>
<path d="M577 1484 c-3 -3 -38 -8 -79 -11 -40 -3 -74 -6 -75 -7 -1 -1 14 -14
33 -30 34 -27 36 -27 92 -15 31 6 69 11 85 11 15 0 27 1 27 2 0 8 -78 54 -83
50z"/>
<path d="M1983 1466 c-41 -27 -41 -32 0 -34 17 -1 43 -4 57 -7 14 -2 36 -7 50
-10 18 -3 35 4 60 25 l34 30 -52 0 c-61 0 -54 -1 -89 9 -21 5 -36 2 -60 -13z"/>
<path d="M543 1405 l-38 -11 45 -33 c58 -43 61 -44 94 -31 l27 10 -20 29 c-12
16 -21 34 -21 40 0 13 -33 11 -87 -4z"/>
<path d="M1956 1380 l-26 -40 25 -10 c35 -13 31 -15 87 27 55 40 53 46 -18 57
-40 6 -42 4 -68 -34z"/>
<path d="M652 1315 l-23 -12 24 -16 c23 -15 77 -13 77 3 0 7 -46 41 -52 39 -2
-1 -13 -7 -26 -14z"/>
<path d="M1891 1313 l-24 -16 27 -14 c22 -12 29 -11 51 3 l25 17 -26 13 c-32
17 -25 17 -53 -3z"/>
</g>
</svg>
